# xmcd
#
# Track frame offsets:
# 150
# 20122
# 32761
# 48018
# 64565
# 79105
# 100844
# 121191
# 136921
# 152463
# 172257
# 193999
# 210539
# 229421
# 243223
# 259555
# 272264
# 284209
#
# Disc length: 4043 seconds
#
# Revision: 0
# Processed by: cddbd v1.5.1PL2 Copyright (c) Steve Scherf et al.
# Submitted via: Audion 3.0.2 (http://www.panic.com/audion/)
#
DISCID=f90fc912
DTITLE=Various Artist - Gold Disc 506
DYEAR=1900
DGENRE=
TTITLE0=Argent - Hold Your Head Up
TTITLE1=Dave Clark Five - Glad All Over
TTITLE2=Albert Hammond - It Never Rains In Southern California 
TTITLE3=Byrds - Eight Miles High
TTITLE4=Van Morrison - Domino
TTITLE5=Peter Frampton - Baby I Love You Way
TTITLE6=T.Rex - Bang A Gong
TTITLE7=Mitch Ryder - Jenny Take A Ride!
TTITLE8=Brewer and Shipley - One Toke Over The Line
TTITLE9=Beatles - Come Together
TTITLE10=Eagles - Life In The Fast Lane
TTITLE11=Rare Earth - (I Know) I'm Losing You
TTITLE12=Supertramp - The Logical Song
TTITLE13=Chicago - Make Me Smile
TTITLE14=Harold Melvin - The Love I Lost
TTITLE15=Rolling Stones - Mother's Little Helper
TTITLE16=Sly and The Family Stone - Hot Fun in the Summertime
TTITLE17=Bruce Springsteen - Glory Days
EXTD=
EXTT0=
EXTT1=
EXTT2=
EXTT3=
EXTT4=
EXTT5=
EXTT6=
EXTT7=
EXTT8=
EXTT9=
EXTT10=
EXTT11=
EXTT12=
EXTT13=
EXTT14=
EXTT15=
EXTT16=
EXTT17=
PLAYORDER=
